# xmcd
#
# Track frame offsets: 
#        182
#        11100
#        23670
#        35002
#        48735
#        58637
#        71835
#        84985
#        97355
#        111802
#        122470
#        136320
#        150975
#        163997
#        175335
#        185157
#        198527
#        210140
#        222492
#        234700
#        248157
#        259885
#        272250
#        286490
#
# Disc length: 3973 seconds
#
# Revision: 8
# Processed by: cddbd v1.5.2PL0 Copyright (c) Steve Scherf et al.
# Submitted via: ExactAudioCopy v1.0b3
#
DISCID=670f8318
DTITLE=Various Artist - Comin' Home To The Blues II
DYEAR=1991
DGENRE=Blues
TTITLE0=Howlin' Wolf - Red Rooster
TTITLE1=Diddley, Bo - I'm A Man
TTITLE2=Williamson, Sonny Boy - Your Funeral And My Trial
TTITLE3=Berry, Chuck - Wee Wee Hours
TTITLE4=Guy, Buddy - First Time I Met The Blues
TTITLE5=Waters, Muddy - Mannish Boy
TTITLE6=James, Elmore - Dust My Broom
TTITLE7=Little Walter - Juke
TTITLE8=Rush, Otis - So Many Roads
TTITLE9=James, Etta - Tell Mama
TTITLE10=Dixon, Willie - Walking The Blues
TTITLE11=Hooker, John Lee - Sugar Mama
TTITLE12=Howlin' Wolf - I Asked For Water (She Gave Me Gasoline)
TTITLE13=Diddley, Bo - Bring It To Jerome
TTITLE14=Berry, Chuck - Worried Life Blues
TTITLE15=Waters, Muddy - Got My Mojo Working
TTITLE16=Williamson, Sonny Boy - Don't Start Me Talking
TTITLE17=Hooker, John Lee - In The Mood
TTITLE18=Rogers, Jimmy - Chicago Bound
TTITLE19=Taylor, Koko - Wang Dang Doodle
TTITLE20=James, Etta - I'd Rather Go Blind
TTITLE21=Washboard Sam - Diggin' My Potatoes
TTITLE22=Fulson, Lowell - Reconsider Baby
TTITLE23=Little Walter - My Baby
EXTD=YEAR: 1991
EXTT0=
EXTT1=
EXTT2=
EXTT3=
EXTT4=
EXTT5=
EXTT6=
EXTT7=
EXTT8=
EXTT9=
EXTT10=
EXTT11=
EXTT12=
EXTT13=
EXTT14=
EXTT15=
EXTT16=
EXTT17=
EXTT18=
EXTT19=
EXTT20=
EXTT21=
EXTT22=
EXTT23=
PLAYORDER=
